<svg width="252" height="56" viewBox="0 0 252 56" fill="none" xmlns="http://www.w3.org/2000/svg">
<g clip-path="url(#clip0_6426_3385)">
<path d="M225.361 51.7142C211.837 51.7142 204.674 37.3333 204.674 25.4467C204.674 14.7281 210.216 4.29373 221.038 4.29373C232.872 4.29373 242.405 16.7408 242.405 30.9796C242.405 41.9033 236.523 51.7221 225.369 51.7221M223.262 56C238.538 56 251.992 45.0052 251.992 28.4854C251.992 11.9656 239.626 0 223.47 0C207.314 0 195.002 12.0998 195.002 27.9329C195.002 35.9521 198.452 43.5529 203.585 48.4623C208.997 53.6479 216.16 56 223.262 56ZM164.889 55.3054H175.163C174.484 52.8823 174.353 50.5381 174.353 48.4623V5.80916H192.138L193.489 0.694574H146.633L145.282 5.80916H165.568V48.4623C165.568 50.7433 165.568 53.0244 164.889 55.3054ZM135.07 33.2527H121.075L128.239 14.586L135.07 33.2527ZM104.988 55.3054H112.831C112.831 53.6479 113.441 52.2667 114.051 50.7433L119.053 38.5804H137.378L141.909 49.7094C142.519 51.0906 143.059 52.4719 143.059 53.861C143.059 54.3425 142.99 54.8319 142.859 55.3133H154.152C152.731 53.4506 151.921 51.58 151.18 49.6462L131.218 0.694574H122.696C123.978 2.55729 124.587 4.49894 124.587 6.36166C124.587 7.5377 124.317 8.71374 123.846 9.95292L107.752 50.1908C107.073 51.8483 106.332 53.6479 104.981 55.3054M73.2781 27.3094H68.7469V3.86751H74.1581C82.5411 3.86751 86.3929 6.84313 86.3929 15.3438C86.3929 23.8444 82.8112 27.3015 73.2781 27.3015M59.9548 55.3054H70.0978C68.7469 52.6061 68.7469 49.9856 68.7469 47.2863V30.9717H69.156C71.2479 31.0427 72.6683 32.9054 84.3705 48.1861C85.9915 50.325 87.7515 52.6771 91.1325 55.3054H102.827C99.3766 52.8192 97.2847 50.325 95.1851 47.7677L80.5109 30.3481C89.8434 28.1381 95.1156 22.471 95.1156 15.1385C95.1156 6.08541 88.6933 0.686681 76.7903 0.686681H59.9548C60.6341 2.34419 60.6341 3.93855 60.6341 5.59605V47.3494C60.6341 49.9777 60.6341 52.6692 59.9548 55.2975M31.1005 56C38.9432 56 46.7164 54.2004 50.0974 51.1617V27.9329C50.0974 26.5517 50.0974 25.4467 50.7767 23.9944H25.1491L23.7982 27.5856H44.0147V49.8436C44.0147 49.8436 41.313 52.1956 32.791 52.1956C20.0081 52.1956 9.6644 40.3011 9.6644 24.3338C9.6644 14.9333 16.5576 4.28584 29.1399 4.28584C34.6822 4.28584 38.7425 5.73813 43.2737 9.19521L48.7543 5.04355C43.2042 1.52333 37.932 0 31.0311 0C24.1301 0 18.7267 1.17604 14.7359 3.25187C5.81253 7.8771 0 16.8671 0 27.2383C0 36.2283 3.24977 43.2767 8.58372 48.4623C13.9949 53.5769 21.0888 56 31.1005 56Z" fill="#EDEBE4"/>
</g>
<defs>
<clipPath id="clip0_6426_3385">
<rect width="252" height="56" fill="white"/>
</clipPath>
</defs>
</svg>
