<?xml version="1.0" encoding="utf-8"?>
<!-- Generator: Adobe Illustrator 17.1.0, SVG Export Plug-In . SVG Version: 6.00 Build 0)  -->
<!DOCTYPE svg PUBLIC "-//W3C//DTD SVG 1.1//EN" "http://www.w3.org/Graphics/SVG/1.1/DTD/svg11.dtd">
<svg version="1.1" id="Capa_1" xmlns="http://www.w3.org/2000/svg" xmlns:xlink="http://www.w3.org/1999/xlink" x="0px" y="0px"
	 viewBox="0 0 459.2 34" enable-background="new 0 0 459.2 34" xml:space="preserve">
<g>
	<path fill="#7E7267" d="M0,25.2c3.3-0.6,4.2-1.9,4.2-5.3V5.7c0-2.1-1.2-3.9-4.2-4V1.3h8l7.9,19.6H16l7.6-19.6h7.5v0.4
		c-3.1,0.1-4,1-4,2.5v18.5c0,1.5,0.8,2.4,4,2.5v0.5H20.2v-0.5c3.3-0.1,3.6-0.9,3.6-2.5V3.5h-0.2l-8.7,22.2h-0.5L5.2,3.5H5.1v16.4
		c0,3.4,0.7,4.8,4.3,5.3v0.5H0V25.2z"/>
	<path fill="#7E7267" d="M33.5,21.2v-9.4c0-1-0.6-1.7-2.6-1.7V9.7l5.5-0.1v10.6c0,2.8,0.8,4.3,3.1,4.3c1.7,0,3.2-1.4,4.1-3.5v-9.1
		c0-1-0.6-1.7-2.6-1.7V9.7l5.5-0.1V24c0,0.8,0.5,1.3,2.6,1.3v0.4h-5.4v-3.8c-1.6,2.7-3.6,4.1-6,4.1C35.2,25.9,33.5,24.3,33.5,21.2"
		/>
	<path fill="#7E7267" d="M50.5,20.4h0.5c2.2,4,3.3,5,5.8,5c2.1,0,3.2-1.5,3.2-2.8c0-1.7-1-2.7-4.4-3.6c-3.5-0.9-5-2.1-5-4.6
		c0-2.8,2.2-5,5.6-5c1.3,0,2.7,0.5,3.6,1l0.8-1H61v5.1h-0.5c-2-3.4-2.9-4.4-5-4.4c-1.7,0-3,1.1-3,2.8c0,1.5,1.4,2.3,4.2,3.1
		c3.5,1,5,2.2,5,4.8c0,2.8-1.7,5.2-5.4,5.2c-1.3,0-3.1-0.5-4.2-1.2L50.9,26h-0.4V20.4z"/>
	<path fill="#7E7267" d="M67.3,17.5c0,4,1.9,7.1,5.6,7.1c2.3,0,3.5-1.2,5-3l0.4,0.3C77,24.1,75.2,26,71.6,26c-4.5,0-7.6-3.5-7.6-8.2
		c0-4.8,3.6-8.5,7.6-8.5c4.6,0,6.9,3.3,6.6,7.1H67.3C67.3,16.9,67.3,17.2,67.3,17.5 M74.9,16c0.3-3.8-0.6-5.9-3.5-5.9
		c-2.2,0-3.7,1.9-4,5.9H74.9z"/>
	<path fill="#7E7267" d="M80.2,17.8c0-4.9,3.8-8.4,7.9-8.4c4.2,0,7.9,3.4,7.9,8.2c0,4.9-3.8,8.4-7.9,8.4
		C83.9,26,80.2,22.7,80.2,17.8 M92.7,17.7c0-5.8-1.9-7.7-4.7-7.7c-2.8,0-4.4,1.9-4.4,7.7c0,5.8,1.9,7.7,4.7,7.7
		C91,25.4,92.7,23.5,92.7,17.7"/>
</g>
<g>
	<path fill="#7E7267" d="M349.6,26.5c3.3-0.6,4.2-1.9,4.2-5.3V6.9c0-2.1-1.2-3.9-4.2-4V2.5h8l7.9,19.6h0.1l7.7-19.6h7.5v0.4
		c-3.1,0.1-4,1-4,2.5v18.5c0,1.5,0.8,2.4,4,2.5v0.5h-10.9v-0.5c3.3-0.1,3.6-0.9,3.6-2.5V4.7h-0.2L364.6,27h-0.5l-9.3-22.3h-0.2v16.5
		c0,3.4,0.7,4.8,4.3,5.3v0.5h-9.4V26.5z"/>
	<path fill="#7E7267" d="M382.2,23.4c0-1.4,0.6-2.7,2-3.5c2.7-1.5,6.8-1.9,7.4-2.3v-2.2c0-2.7-0.8-4.1-3-4.1c-1.3,0-2.5,0.4-3.1,1.2
		c0.5,0.6,0.9,1.2,0.9,1.8c0,1.1-0.7,1.9-1.9,1.9c-1.1,0-1.8-0.8-1.8-1.9c0-2,2.7-3.6,6.1-3.6c3.6,0,5.7,1.5,5.7,4.8v8.5
		c0,1.7,0.6,2.6,2.7,1.8l0.1,0.4c-1.2,0.7-2,1-3.1,1c-1.8,0-2.4-0.8-2.5-2.7h-0.1c-1.4,1.6-3.1,2.8-5.1,2.8
		C383.5,27.1,382.2,25.3,382.2,23.4 M391.6,23.5v-5.2c-5.2,1.2-6.2,2.2-6.2,4.5c0,1.7,0.8,2.9,2.8,2.9
		C389.6,25.8,390.8,24.6,391.6,23.5"/>
	<path fill="#7E7267" d="M397.6,26.5c2,0,2.6-0.2,2.6-1.4l0-21.3c0-1.3-0.4-1.7-2.9-1.8V1.6l5.9-0.1l0,23.6c0,1.2,0.5,1.4,2.6,1.4
		v0.4h-8.1V26.5z"/>
	<path fill="#7E7267" d="M407.4,23.4c0-1.4,0.6-2.7,2-3.5c2.7-1.5,6.8-1.9,7.4-2.3v-2.2c0-2.7-0.8-4.1-3-4.1c-1.3,0-2.5,0.4-3.1,1.2
		c0.5,0.6,0.9,1.2,0.9,1.8c0,1.1-0.7,1.9-1.9,1.9c-1.1,0-1.8-0.8-1.8-1.9c0-2,2.7-3.6,6.1-3.6c3.6,0,5.7,1.5,5.7,4.8v8.5
		c0,1.7,0.6,2.6,2.7,1.8l0.1,0.4c-1.2,0.7-2,1-3.1,1c-1.8,0-2.4-0.8-2.5-2.7h-0.1c-1.4,1.6-3.1,2.8-5.1,2.8
		C408.7,27.1,407.4,25.3,407.4,23.4 M416.8,23.5v-5.2c-5.2,1.2-6.2,2.2-6.2,4.5c0,1.7,0.8,2.9,2.8,2.9
		C414.7,25.8,416,24.6,416.8,23.5"/>
	<path fill="#7E7267" d="M436.2,8.7c1.2,0,1.9,0.7,1.9,1.7c0,0.8-0.6,1.4-1.3,1.4c-0.7,0-1.4-0.6-1.4-1.7c-0.8,0.1-1.5,0.8-1.9,1.6
		c1.5,0.9,2.6,2.3,2.6,4.3c0,3.4-3.3,5.4-6.3,5.4c-0.8,0-1.6-0.1-2.3-0.4c-1.4,0.5-2.1,1.1-2.1,1.8c0,0.7,0.5,1.3,3.6,1.3h2.1
		c4.4,0,6.7,1.2,6.7,4.3c0,2.8-2.7,5.5-8.3,5.5c-4.3,0-6.9-1.6-6.9-3.6c0-1.6,1.7-3.2,4.3-3.5v-0.1c-2.2-0.6-3.1-1.4-3.1-2.8
		c0-1.1,0.9-2.3,2.8-3.2c-1.8-0.8-3.2-2.3-3.2-4.7c0-3.4,3.3-5.4,6.3-5.4c1,0,2.2,0.2,3.2,0.7C433.7,10,434.6,8.7,436.2,8.7
		 M435.9,29.4c0-1.4-1.2-2.5-4.9-2.5H428c-2,0.5-3,1.5-3,2.9c0,1.9,1.5,3.5,5.4,3.5C433.4,33.4,435.9,31.8,435.9,29.4 M433,16
		c0-2.9-1.2-4.8-3.3-4.8c-2.1,0-3,1.5-3,4.8c0,3.2,1.2,4.8,3.3,4.8C432,20.8,433,19.2,433,16"/>
	<path fill="#7E7267" d="M438.8,23.4c0-1.4,0.6-2.7,2-3.5c2.7-1.5,6.8-1.9,7.4-2.3v-2.2c0-2.7-0.8-4.1-3-4.1c-1.3,0-2.5,0.4-3.1,1.2
		c0.5,0.6,0.9,1.2,0.9,1.8c0,1.1-0.7,1.9-1.9,1.9c-1.1,0-1.8-0.8-1.8-1.9c0-2,2.7-3.6,6.1-3.6c3.7,0,5.7,1.5,5.7,4.8v8.5
		c0,1.7,0.6,2.6,2.7,1.8L454,26c-1.2,0.7-2,1-3.1,1c-1.8,0-2.4-0.8-2.5-2.7h-0.1c-1.4,1.6-3.1,2.8-5.1,2.8
		C440.2,27.1,438.8,25.3,438.8,23.4 M448.2,23.5v-5.2c-5.2,1.2-6.2,2.2-6.2,4.5c0,1.7,0.8,2.9,2.8,2.9
		C446.2,25.8,447.5,24.6,448.2,23.5"/>
	<path fill="#7E7267" d="M386.5,7.9c-0.1,0-0.1-0.6,0-0.6c4.8-1,4.8-5.4,6.6-5.4c0.7,0,1.2,0.5,1.2,1.1C394.3,4.4,393,6.5,386.5,7.9
		"/>
</g>
<g>
	<path fill="#443E3E" d="M107.2,15.1c0-7.5,5.6-13.1,12.6-13.1c2.6,0,4.6,0.5,6.2,1.4l1.5-1.6h0.4v8h-0.4c-1.7-4.7-4.4-7.2-8-7.2
		c-4.3,0-8.3,3.5-8.3,12.3c0,8.4,4.8,11.4,9,11.4c4.2,0,7.2-2.9,8.6-6.1l0.6,0.3c-1.5,3.4-4.7,7-10.1,7
		C112.2,27.6,107.2,22.6,107.2,15.1"/>
	<path fill="#443E3E" d="M131,23.5c0-1.4,0.6-2.7,2-3.5c2.7-1.5,6.8-1.9,7.4-2.3v-2.2c0-2.7-0.8-4.1-3-4.1c-1.3,0-2.5,0.4-3.1,1.2
		c0.5,0.6,0.9,1.2,0.9,1.8c0,1.1-0.7,1.9-1.9,1.9c-1.1,0-1.8-0.8-1.8-1.9c0-2,2.7-3.6,6.1-3.6c3.7,0,5.7,1.5,5.7,4.8V24
		c0,1.7,0.6,2.6,2.7,1.8l0.1,0.3c-1.2,0.7-2,1-3.1,1c-1.8,0-2.4-0.8-2.5-2.7h-0.1c-1.4,1.6-3.1,2.8-5.1,2.8
		C132.4,27.2,131,25.4,131,23.5 M140.4,23.6v-5.2c-5.2,1.2-6.2,2.2-6.2,4.5c0,1.7,0.8,2.9,2.8,2.9C138.4,25.8,139.7,24.7,140.4,23.6
		"/>
	<path fill="#443E3E" d="M146.4,26.6c2,0,2.6-0.2,2.6-1.4v-12c0-1.1-0.5-1.8-2.6-1.8v-0.4l5.4-0.1v3.6c1.3-2.3,2.9-3.8,4.7-3.8
		c1.8,0,2.6,1.1,2.6,2.3c0,1.1-0.8,1.9-1.9,1.9c-1.1,0-1.9-0.7-1.9-1.9c0-0.3,0.1-0.7,0.2-0.9c-1.6,0.2-2.4,1.3-3.6,3.2v9.9
		c0,1.2,0.7,1.4,2.9,1.4V27h-8.5V26.6z"/>
	<path fill="#443E3E" d="M180.8,10.7c2.5,0,4.1,1.6,4.1,4.7v9.7c0,1.2,0.5,1.4,2.6,1.4V27h-7.5v-0.4c1.8,0,2-0.2,2-1.4v-8.7
		c0-2.8-0.8-4.3-2.9-4.3c-1.5,0-3,1.2-4,2.9v0.3v9.7c0,1.2,0.5,1.4,2.6,1.4V27h-7.8v-0.4c1.8,0,2.2-0.2,2.2-1.4v-8.7
		c0-2.8-0.8-4.3-2.9-4.3c-1.7,0-3.1,1.4-4,3.5v9.5c0,1.2,0.2,1.4,2,1.4V27h-7.5v-0.4c2,0,2.6-0.2,2.6-1.4v-12c0-1.1-0.5-1.8-2.6-1.8
		v-0.4l5.4-0.1v4c1.6-2.7,3.5-4.1,5.9-4.1c2.2,0,3.7,1.2,4,3.6C176.5,12,178.6,10.7,180.8,10.7"/>
	<path fill="#443E3E" d="M191.5,18.8c0,4,1.9,7.2,5.7,7.2c2.3,0,3.5-1.2,5-3.1l0.4,0.3c-1.3,2.2-3.2,4.1-6.7,4.1
		c-4.5,0-7.6-3.5-7.6-8.2c0-4.8,3.6-8.5,7.6-8.5c4.6,0,6.9,3.3,6.6,7.2h-10.9C191.5,18.2,191.5,18.5,191.5,18.8 M199.1,17.3
		c0.3-3.8-0.6-6-3.5-6c-2.2,0-3.8,1.9-4,6H199.1z"/>
	<path fill="#443E3E" d="M203.6,26.6c2,0,2.6-0.2,2.6-1.4v-12c0-1.1-0.5-1.8-2.6-1.8v-0.4l5.4-0.1v4c1.6-2.7,3.7-4.1,6.1-4.1
		c2.6,0,4.2,1.6,4.2,4.7v9.7c0,1.2,0.5,1.4,2.6,1.4V27h-7.8v-0.4c1.8,0,2.2-0.2,2.2-1.4v-8.7c0-2.8-0.8-4.3-3.1-4.3
		c-1.7,0-3.2,1.4-4.2,3.5v9.5c0,1.2,0.5,1.4,2.2,1.4V27h-7.7V26.6z"/>
	<path fill="#443E3E" d="M226.5,26.5c3.1-0.1,4.2-1,4.2-2.5V3.2H229c-2.6,0-4.9,2.2-6.9,6.6l-0.5,0l0.2-7.3H243l0.2,7.3l-0.5,0
		c-2-4.1-4.3-6.6-6.9-6.6h-1.7V24c0,1.5,1.1,2.4,4.2,2.5V27h-11.8V26.5z"/>
	<path fill="#443E3E" d="M244.6,26.6c2,0,2.6-0.2,2.6-1.4l0-21.4c0-1.3-0.4-1.7-2.9-1.8V1.6l5.9-0.1l0,13.3c1.6-2.7,3.6-4.1,6-4.1
		c2.6,0,4.2,1.6,4.2,4.7v9.7c0,1.2,0.5,1.4,2.6,1.4V27h-7.8v-0.4c1.8,0,2.2-0.2,2.2-1.4v-8.7c0-2.8-0.8-4.3-3.1-4.3
		c-1.7,0-3.2,1.4-4.2,3.5v9.5c0,1.2,0.5,1.4,2.2,1.4V27h-7.7V26.6z"/>
	<path fill="#443E3E" d="M279.8,21.7h0.5c2.2,4,3.3,5.1,5.8,5.1c2.1,0,3.2-1.5,3.2-2.8c0-1.7-1.1-2.7-4.4-3.6c-3.5-0.9-5-2.1-5-4.6
		c0-2.8,2.2-5,5.6-5c1.3,0,2.7,0.5,3.6,1l0.8-1h0.4v5.1h-0.5c-2-3.4-2.9-4.5-5-4.5c-1.7,0-3,1.1-3,2.8c0,1.5,1.4,2.3,4.2,3.2
		c3.5,1,5,2.2,5,4.8c0,2.8-1.7,5.3-5.4,5.3c-1.3,0-3.1-0.5-4.2-1.2l-1.2,1.2h-0.4V21.7z"/>
	<path fill="#443E3E" d="M293.9,21.7h0.5c2.2,4,3.3,5.1,5.8,5.1c2.1,0,3.2-1.5,3.2-2.8c0-1.7-1.1-2.7-4.4-3.6c-3.5-0.9-5-2.1-5-4.6
		c0-2.8,2.2-5,5.6-5c1.3,0,2.7,0.5,3.6,1l0.8-1h0.4v5.1h-0.5c-2-3.4-2.9-4.5-5-4.5c-1.7,0-3,1.1-3,2.8c0,1.5,1.4,2.3,4.2,3.2
		c3.5,1,5,2.2,5,4.8c0,2.8-1.7,5.3-5.4,5.3c-1.3,0-3.1-0.5-4.2-1.2l-1.2,1.2h-0.4V21.7z"/>
	<path fill="#443E3E" d="M310.4,18.8c0,4,1.9,7.2,5.7,7.2c2.3,0,3.5-1.2,5-3.1l0.4,0.3c-1.3,2.2-3.2,4.1-6.7,4.1
		c-4.5,0-7.6-3.5-7.6-8.2c0-4.8,3.6-8.5,7.6-8.5c4.6,0,6.9,3.3,6.6,7.2h-10.9C310.4,18.2,310.4,18.5,310.4,18.8 M318,17.3
		c0.3-3.8-0.6-6-3.5-6c-2.2,0-3.8,1.9-4,6H318z"/>
	<path fill="#443E3E" d="M322.5,26.6c2,0,2.6-0.2,2.6-1.4v-12c0-1.1-0.5-1.8-2.6-1.8v-0.4l5.4-0.1v4c1.6-2.7,3.7-4.1,6.1-4.1
		c2.6,0,4.2,1.6,4.2,4.7v9.7c0,1.2,0.5,1.4,2.6,1.4V27h-7.8v-0.4c1.8,0,2.2-0.2,2.2-1.4v-8.7c0-2.8-0.8-4.3-3.1-4.3
		c-1.7,0-3.2,1.4-4.2,3.5v9.5c0,1.2,0.5,1.4,2.2,1.4V27h-7.7V26.6z"/>
	<g>
		<path fill="#443E3E" d="M264.6,14.1c-0.8-1.9-1.5-2.6-3.3-2.8v-0.4h8v0.4c-2.2,0.1-2.3,1-1.8,2.4c0,0,4.2,10.1,4.2,10.1l3.2-8.2
			c1.2-3.1,0.8-4-1.8-4.3v-0.4h6.1v0.4c-1.1,0.1-2.2,1.3-3,3.2L270.7,28c-2,4.8-3.5,6-5.5,6c-1.5,0-2.4-1.1-2.4-2.3c0-1,0.6-2,1.8-2
			c1,0,1.8,0.8,1.8,1.9c0,0.6-0.2,1.2-0.7,1.6c1.2-0.2,2.6-1,4.4-5.6l0.2-0.5L264.6,14.1z"/>
	</g>
</g>
</svg>
