<svg width="268" height="58" viewBox="0 0 268 58" fill="none" xmlns="http://www.w3.org/2000/svg">
<g clip-path="url(#clip0_664_12792)">
<g opacity="0.5">
<path d="M8.33808 56.6898C8.25005 56.5892 8.19974 56.4635 8.19974 56.3251L8.19974 34.6562C8.19974 34.4172 8.09913 34.1909 7.89791 34.0022C7.69669 33.801 7.47032 33.7004 7.19364 33.7004H0.477899C0.364712 33.7004 0.264102 33.6501 0.163492 33.5369C0.0628814 33.4363 0 33.3231 0 33.2225L0 29.349C0 29.2106 0.0503052 29.11 0.138339 29.0346C0.226373 28.9591 0.33956 28.9214 0.477899 28.9214L21.5935 28.9214C21.757 28.9214 21.8827 28.9717 21.9959 29.0849C22.0965 29.1855 22.1594 29.3113 22.1594 29.4496V33.2099C22.1594 33.3482 22.1091 33.4614 21.9959 33.5746C21.8827 33.6878 21.757 33.7381 21.5935 33.7381H14.9532C14.6891 33.7381 14.4627 33.8261 14.2741 34.0148C14.0854 34.2034 13.9974 34.4298 13.9974 34.6939L13.9974 56.3629C13.9974 56.5012 13.9471 56.6144 13.8591 56.7276C13.771 56.8408 13.6453 56.8911 13.4818 56.8911H8.72795C8.56445 56.8911 8.43869 56.8408 8.35066 56.7276L8.33808 56.6898Z" fill="#FAFAFA"/>
<path d="M23.5024 56.7192C23.4269 56.6185 23.3892 56.4928 23.4269 56.3544L30.5074 29.4412C30.5577 29.2777 30.6583 29.1394 30.8092 29.0262C30.9601 28.9004 31.1236 28.8501 31.3122 28.8501L39.6252 28.8501C39.7887 28.8501 39.9396 28.9004 40.1031 29.0136C40.2666 29.1268 40.3672 29.2525 40.4175 29.416L47.4979 56.3293V56.4551C47.4979 56.7443 47.3596 56.8952 47.0955 56.8952H43.1717C43.0082 56.8952 42.8447 56.8323 42.6686 56.7192C42.4926 56.5934 42.392 56.4551 42.3668 56.3041L40.4049 48.8716C40.3546 48.6326 40.2163 48.4314 40.0025 48.2679C39.7887 48.1044 39.5623 48.0289 39.3233 48.0289H31.5638C31.3248 48.0289 31.0984 48.1044 30.8847 48.2679C30.6709 48.4314 30.5325 48.6326 30.4822 48.8716L28.5203 56.2664C28.4952 56.4551 28.3945 56.606 28.2185 56.7317C28.0424 56.8449 27.8789 56.9078 27.7154 56.9078H23.7916C23.6533 56.9078 23.5527 56.8575 23.4772 56.7443L23.5024 56.7192ZM38.1034 43.7279C38.3675 43.7279 38.5813 43.6398 38.7197 43.4512C38.8706 43.2625 38.9083 43.0487 38.858 42.8098L36.6194 34.5723C36.5943 34.3585 36.4685 34.1699 36.2547 34.019C36.0409 33.868 35.8146 33.78 35.5756 33.78H35.3367C35.0977 33.78 34.8713 33.8555 34.6575 34.019C34.4437 34.1824 34.318 34.3711 34.2928 34.5723L32.092 42.8098L32.0542 43.011C32.0542 43.2248 32.1171 43.4009 32.2555 43.5266C32.3938 43.665 32.5699 43.7279 32.8214 43.7279H38.1034Z" fill="#FAFAFA"/>
<path d="M53.5346 56.5951C53.4214 56.4945 53.3711 56.3687 53.3711 56.2304L53.3711 29.4806C53.3711 29.2668 53.4088 29.1159 53.4969 29.0404C53.5849 28.965 53.7107 28.9272 53.8993 28.9272H58.0998C58.2381 28.9272 58.3513 28.9776 58.4645 29.0907C58.5651 29.2039 58.628 29.3297 58.628 29.4932V37.6552C58.628 37.8438 58.6909 37.9948 58.8041 38.1205C58.9172 38.2337 59.0682 38.2966 59.2191 38.2966C59.4077 38.2966 59.5838 38.2211 59.7347 38.0576L67.1673 29.3045C67.2679 29.1662 67.3685 29.0782 67.4691 29.0279C67.5572 28.9776 67.7081 28.9524 67.8841 28.9524H73.6441C73.8076 28.9524 73.9082 28.9901 73.9459 29.053C73.9836 29.1159 73.9459 29.2165 73.8453 29.3548L63.6082 41.5538C63.4447 41.7173 63.4321 41.8683 63.5705 42.0317C66.375 45.7417 68.7645 49.0116 70.7515 51.8664C72.7386 54.7212 73.7573 56.1801 73.8076 56.2681C73.8327 56.2933 73.8453 56.3436 73.8453 56.4316C73.8453 56.5196 73.795 56.5951 73.707 56.6705C73.6189 56.746 73.4932 56.7837 73.3297 56.7837H69.2046C68.7519 56.7837 68.3998 56.7334 68.1608 56.6202C67.9219 56.5196 67.6955 56.3436 67.4817 56.1046L60.3635 45.943C60.2252 45.7795 60.0868 45.704 59.9233 45.704C59.785 45.704 59.6718 45.7543 59.5586 45.8675C59.131 46.2951 58.8669 46.6598 58.7537 46.9491C58.6531 47.2383 58.5903 47.6911 58.5903 48.3073L58.5903 56.2681C58.5903 56.4064 58.54 56.5196 58.4268 56.6328C58.3136 56.746 58.2004 56.7963 58.062 56.7963H53.8616C53.7232 56.7963 53.61 56.746 53.4969 56.6328L53.5346 56.5951Z" fill="#FAFAFA"/>
<path d="M79.6738 56.4945C79.5228 56.3436 79.46 56.1801 79.46 55.9914V29.6441C79.46 29.4303 79.5354 29.2542 79.6738 29.1285C79.8247 28.9901 79.9882 28.9272 80.1768 28.9272L98.0854 28.9272C98.2992 28.9272 98.4753 28.9901 98.6011 29.1285C98.7394 29.2668 98.8023 29.4303 98.8023 29.6441V33.002C98.8023 33.1906 98.7394 33.3541 98.6011 33.505C98.4627 33.6559 98.2992 33.7314 98.0854 33.7314H85.1696C84.981 33.7314 84.8175 33.7943 84.6665 33.9326C84.5156 34.071 84.4527 34.2344 84.4527 34.4482V40.4471C84.4527 40.6861 84.5031 40.8496 84.6162 40.9502C84.7168 41.0382 84.9809 41.0885 85.3708 41.0885H95.369C95.5576 41.0885 95.7211 41.1514 95.8469 41.2646C95.9852 41.3904 96.0481 41.5413 96.0481 41.7299V45.1255C96.0481 45.3142 95.9852 45.4651 95.8469 45.5908C95.7085 45.7166 95.5576 45.7669 95.369 45.7669H85.3331C84.981 45.7669 84.7546 45.8675 84.6288 46.0687C84.5031 46.27 84.4527 46.4712 84.4527 46.685V50.9232C84.4527 51.1873 84.5282 51.4137 84.6665 51.6023C84.8049 51.7909 85.1067 51.879 85.572 51.879H98.3621C98.5508 51.879 98.7143 51.9544 98.8652 52.1054C99.0161 52.2563 99.079 52.4323 99.079 52.6461V56.004C99.079 56.1926 99.0161 56.3561 98.8778 56.5071C98.7394 56.658 98.5759 56.7334 98.3621 56.7334H80.1642C79.9756 56.7334 79.8121 56.658 79.6612 56.5071L79.6738 56.4945Z" fill="#FAFAFA"/>
<path d="M120.124 56.6223C119.973 56.4714 119.91 56.3079 119.91 56.1193V42.1596C119.91 41.9458 119.986 41.7697 120.124 41.6188C120.275 41.4679 120.438 41.405 120.627 41.405H129.468C130.487 41.405 131.355 41.0403 132.084 40.3235C132.813 39.6066 133.178 38.7389 133.178 37.7202C133.178 36.7015 132.813 35.796 132.084 35.0792C131.355 34.3623 130.474 33.9976 129.468 33.9976H120.627C120.438 33.9976 120.275 33.9221 120.124 33.7712C119.973 33.6203 119.91 33.4442 119.91 33.2304V29.5582C119.91 29.3444 119.986 29.1683 120.124 29.0174C120.275 28.8665 120.438 28.791 120.627 28.791H129.468C131.065 28.791 132.549 29.1935 133.908 29.9858C135.266 30.7781 136.347 31.8722 137.152 33.243C137.957 34.6138 138.347 36.0978 138.347 37.7076C138.347 39.3174 137.945 40.7888 137.152 42.147C136.347 43.5053 135.278 44.5868 133.908 45.3791C132.537 46.1714 131.065 46.5739 129.468 46.5739H125.23C124.941 46.5739 124.739 46.6116 124.626 46.6871C124.513 46.7625 124.463 46.926 124.463 47.165V56.0816C124.463 56.2954 124.387 56.4714 124.249 56.5972C124.098 56.7355 123.922 56.7984 123.708 56.7984H120.627C120.438 56.7984 120.275 56.723 120.124 56.5846V56.6223Z" fill="#FAFAFA"/>
<path d="M147.103 52.4601C145.782 50.9761 144.814 49.3286 144.21 47.5176L144.135 47.3164C143.657 45.8701 143.418 44.3861 143.418 42.8392C143.418 41.1918 143.695 39.5568 144.261 37.9596C144.827 36.3625 145.657 34.9036 146.776 33.5957C148.247 32.0236 149.731 30.8163 151.228 29.9737C152.737 29.1311 154.636 28.6532 156.925 28.5148H157.051C159.289 28.3765 161.478 28.779 163.603 29.7096C164.936 30.3007 166.219 31.1559 167.464 32.2877C168.709 33.4196 169.602 34.5515 170.168 35.6708C171.425 37.859 172.042 40.236 172.042 42.7889C172.042 44.2855 171.815 45.7444 171.362 47.1655C170.91 48.5992 170.243 49.9197 169.363 51.1396C168.696 52.0702 167.967 52.8877 167.187 53.592C166.395 54.2963 165.439 54.9628 164.282 55.5665C162.232 56.6103 160.019 57.1259 157.642 57.1259C155.617 57.1259 153.68 56.7235 151.844 55.9312C150.008 55.076 148.423 53.9064 147.103 52.435V52.4601ZM164.508 48.9262C165.225 48.0961 165.753 47.3164 166.068 46.5618C166.596 45.3419 166.873 44.0843 166.873 42.8015C166.873 41.0408 166.395 39.3933 165.439 37.859C164.483 36.3247 163.163 35.1929 161.478 34.4383C160.245 33.9101 158.987 33.6334 157.679 33.6334C156.51 33.6334 155.378 33.8472 154.296 34.2748C153.215 34.7024 152.247 35.3312 151.391 36.1487L150.712 36.8655C149.995 37.7458 149.455 38.6891 149.09 39.7078C148.725 40.7139 148.549 41.7577 148.549 42.8267C148.549 44.1598 148.826 45.4425 149.392 46.6876C149.958 47.9326 150.763 48.9765 151.832 49.8317C153.567 51.2654 155.542 51.9948 157.755 51.9948C159.226 51.9948 160.597 51.6804 161.88 51.039C162.924 50.4479 163.804 49.7436 164.521 48.9136L164.508 48.9262Z" fill="#FAFAFA"/>
<path d="M178.842 56.6215C178.691 56.4706 178.628 56.3071 178.628 56.1184V29.5699C178.628 29.3561 178.703 29.18 178.867 29.0291C179.03 28.8782 179.194 28.8027 179.383 28.8027H183.545C183.734 28.8027 183.897 28.8782 184.048 29.0291C184.199 29.18 184.262 29.3561 184.262 29.5699V56.1184C184.262 56.3071 184.199 56.4706 184.061 56.6215C183.923 56.7724 183.759 56.8353 183.545 56.8353H179.383C179.169 56.8353 178.993 56.7598 178.842 56.6215Z" fill="#FAFAFA"/>
<path d="M192.513 56.598C192.4 56.4974 192.337 56.3591 192.337 56.1956V29.4458C192.337 29.2823 192.4 29.1566 192.513 29.0434C192.639 28.9428 192.777 28.8799 192.928 28.8799H197.003C197.191 28.8799 197.33 28.9679 197.443 29.1566L206.925 45.1913C207.215 45.7195 207.454 45.9962 207.642 45.9962C207.856 45.9962 207.957 45.707 207.957 45.1159L207.881 29.4458C207.881 29.2823 207.944 29.1566 208.057 29.0434C208.17 28.9302 208.321 28.8799 208.472 28.8799H212.673C212.836 28.8799 212.975 28.9302 213.088 29.0434C213.201 29.144 213.264 29.2823 213.264 29.4458V56.1956C213.264 56.3591 213.201 56.4848 213.088 56.598C212.962 56.7112 212.824 56.7615 212.673 56.7615H209.831C209.353 56.7615 209.013 56.7238 208.837 56.6483C208.648 56.5729 208.447 56.3591 208.233 56.0069L198.16 39.9722C197.996 39.7332 197.858 39.6075 197.72 39.6075C197.506 39.6075 197.405 39.7961 197.405 40.1734L197.481 56.2082C197.481 56.3717 197.418 56.4974 197.305 56.6106C197.179 56.7238 197.053 56.7741 196.927 56.7741H192.928C192.765 56.7741 192.626 56.7238 192.513 56.6106V56.598Z" fill="#FAFAFA"/>
<path d="M227.702 56.6898C227.614 56.5892 227.564 56.4635 227.564 56.3251V34.6562C227.564 34.4172 227.463 34.1909 227.262 34.0022C227.061 33.801 226.835 33.7004 226.558 33.7004H219.842C219.729 33.7004 219.628 33.6501 219.528 33.5369C219.427 33.4363 219.364 33.3231 219.364 33.2225V29.349C219.364 29.2106 219.415 29.11 219.503 29.0346C219.591 28.9591 219.704 28.9214 219.842 28.9214L240.958 28.9214C241.121 28.9214 241.247 28.9717 241.36 29.0849C241.461 29.1855 241.524 29.3113 241.524 29.4496V33.2099C241.524 33.3482 241.473 33.4614 241.36 33.5746C241.247 33.6878 241.121 33.7381 240.958 33.7381H234.317C234.053 33.7381 233.827 33.8261 233.638 34.0148C233.45 34.2034 233.362 34.4298 233.362 34.6939V56.3629C233.362 56.5012 233.311 56.6144 233.223 56.7276C233.135 56.8408 233.01 56.8911 232.846 56.8911H228.092C227.929 56.8911 227.803 56.8408 227.715 56.7276L227.702 56.6898Z" fill="#FAFAFA"/>
</g>
<path d="M267.65 28.5807C267.499 28.7316 267.323 28.7945 267.109 28.7945H262.946C262.733 28.7945 262.557 28.7191 262.431 28.5807C262.292 28.4298 262.23 28.2663 262.23 28.0777V6.42129L240.498 6.42129C240.284 6.42129 240.108 6.34583 239.957 6.20749C239.806 6.05657 239.743 5.89308 239.743 5.70444V1.54169C239.743 1.35304 239.819 1.17697 239.957 1.02606C240.108 0.862567 240.284 0.787109 240.498 0.787109L262.921 0.787109C262.921 0.787109 262.934 0.787109 262.946 0.787109L267.109 0.787109C267.298 0.787109 267.474 0.862567 267.625 1.00091C267.788 1.15182 267.864 1.32789 267.864 1.54169V28.0902C267.864 28.2789 267.788 28.4424 267.65 28.5933V28.5807Z" fill="#FAFAFA"/>
</g>
<defs>
<clipPath id="clip0_664_12792">
<rect width="267.875" height="56.3795" fill="white" transform="translate(0 0.78125)"/>
</clipPath>
</defs>
</svg>
