<svg width="192" height="40" viewBox="0 0 192 40" fill="none" xmlns="http://www.w3.org/2000/svg">
  <path d="M5.97634 39.662C5.91324 39.5906 5.87718 39.5014 5.87718 39.4033V24.0296C5.87718 23.8601 5.80507 23.6995 5.66085 23.5657C5.51662 23.4229 5.35437 23.3515 5.15606 23.3515H0.342535C0.261408 23.3515 0.189296 23.3158 0.117183 23.2355C0.0450704 23.1642 0 23.0838 0 23.0125V20.2643C0 20.1662 0.0360563 20.0948 0.0991549 20.0412C0.162254 19.9877 0.24338 19.9609 0.342535 19.9609H15.4772C15.5944 19.9609 15.6845 19.9966 15.7656 20.0769C15.8377 20.1483 15.8828 20.2375 15.8828 20.3357V23.0035C15.8828 23.1017 15.8468 23.182 15.7656 23.2623C15.6845 23.3426 15.5944 23.3783 15.4772 23.3783H10.7177C10.5285 23.3783 10.3662 23.4407 10.231 23.5746C10.0958 23.7084 10.0327 23.869 10.0327 24.0564V39.43C10.0327 39.5282 9.99662 39.6085 9.93352 39.6888C9.87042 39.7691 9.78028 39.8048 9.6631 39.8048H6.25577C6.13859 39.8048 6.04845 39.7691 5.98535 39.6888L5.97634 39.662Z" fill="#161718"/>
  <path d="M16.8459 39.6865C16.7919 39.6152 16.7648 39.5259 16.7919 39.4278L21.8668 20.3334C21.9028 20.2174 21.975 20.1193 22.0831 20.039C22.1913 19.9498 22.3085 19.9141 22.4437 19.9141H28.402C28.5192 19.9141 28.6274 19.9498 28.7445 20.0301C28.8617 20.1104 28.9338 20.1996 28.9699 20.3156L34.0448 39.4099V39.4992C34.0448 39.7044 33.9457 39.8115 33.7564 39.8115H30.944C30.8268 39.8115 30.7096 39.7668 30.5834 39.6865C30.4572 39.5973 30.3851 39.4992 30.3671 39.3921L28.9609 34.1188C28.9248 33.9493 28.8257 33.8065 28.6724 33.6905C28.5192 33.5746 28.3569 33.521 28.1857 33.521H22.624C22.4527 33.521 22.2905 33.5746 22.1372 33.6905C21.984 33.8065 21.8848 33.9493 21.8488 34.1188L20.4426 39.3653C20.4245 39.4992 20.3524 39.6062 20.2262 39.6955C20.1 39.7758 19.9828 39.8204 19.8657 39.8204H17.0533C16.9541 39.8204 16.882 39.7847 16.8279 39.7044L16.8459 39.6865ZM27.3113 30.4695C27.5006 30.4695 27.6538 30.407 27.753 30.2732C27.8612 30.1394 27.8882 29.9877 27.8521 29.8181L26.2476 23.9738C26.2296 23.8222 26.1395 23.6883 25.9862 23.5812C25.833 23.4742 25.6707 23.4117 25.4995 23.4117H25.3282C25.1569 23.4117 24.9947 23.4653 24.8414 23.5812C24.6882 23.6972 24.5981 23.8311 24.58 23.9738L23.0026 29.8181L22.9755 29.9609C22.9755 30.1126 23.0206 30.2375 23.1197 30.3267C23.2189 30.4249 23.3451 30.4695 23.5254 30.4695H27.3113Z" fill="#161718"/>
  <path d="M38.375 39.5985C38.2939 39.5271 38.2578 39.4379 38.2578 39.3397V20.3613C38.2578 20.2097 38.2849 20.1026 38.348 20.0491C38.4111 19.9955 38.5012 19.9688 38.6364 19.9688H41.6471C41.7463 19.9688 41.8274 20.0044 41.9085 20.0847C41.9806 20.165 42.0257 20.2543 42.0257 20.3703V26.161C42.0257 26.2949 42.0708 26.4019 42.1519 26.4912C42.233 26.5715 42.3412 26.6161 42.4494 26.6161C42.5846 26.6161 42.7108 26.5625 42.8189 26.4466L48.1463 20.2364C48.2184 20.1383 48.2905 20.0758 48.3626 20.0401C48.4257 20.0044 48.5339 19.9866 48.6601 19.9866H52.7885C52.9057 19.9866 52.9778 20.0134 53.0049 20.058C53.0319 20.1026 53.0049 20.174 52.9327 20.2721L45.5953 28.927C45.4781 29.043 45.4691 29.1501 45.5682 29.2661C47.5784 31.8983 49.2911 34.2181 50.7153 36.2436C52.1395 38.269 52.8696 39.304 52.9057 39.3665C52.9237 39.3843 52.9327 39.42 52.9327 39.4825C52.9327 39.5449 52.8967 39.5985 52.8336 39.652C52.7705 39.7055 52.6804 39.7323 52.5632 39.7323H49.6065C49.282 39.7323 49.0296 39.6966 48.8584 39.6163C48.6871 39.5449 48.5249 39.42 48.3716 39.2505L43.2696 32.041C43.1705 31.925 43.0713 31.8715 42.9542 31.8715C42.855 31.8715 42.7739 31.9072 42.6927 31.9875C42.3863 32.2909 42.197 32.5496 42.1158 32.7548C42.0437 32.96 41.9987 33.2813 41.9987 33.7185V39.3665C41.9987 39.4646 41.9626 39.5449 41.8815 39.6252C41.8003 39.7055 41.7192 39.7412 41.6201 39.7412H38.6094C38.5102 39.7412 38.4291 39.7055 38.348 39.6252L38.375 39.5985Z" fill="#161718"/>
  <path d="M57.1064 39.5271C56.9982 39.42 56.9531 39.304 56.9531 39.1702V20.4773C56.9531 20.3257 57.0072 20.2007 57.1064 20.1115C57.2145 20.0134 57.3317 19.9688 57.4669 19.9688H70.303C70.4562 19.9688 70.5824 20.0134 70.6726 20.1115C70.7717 20.2097 70.8168 20.3257 70.8168 20.4773V22.8597C70.8168 22.9935 70.7717 23.1095 70.6726 23.2166C70.5734 23.3236 70.4562 23.3772 70.303 23.3772H61.0455C60.9103 23.3772 60.7931 23.4218 60.685 23.5199C60.5768 23.6181 60.5317 23.7341 60.5317 23.8858V28.1418C60.5317 28.3114 60.5678 28.4274 60.6489 28.4988C60.721 28.5612 60.9103 28.5969 61.1897 28.5969H68.3559C68.4912 28.5969 68.6083 28.6415 68.6985 28.7218C68.7976 28.811 68.8427 28.9181 68.8427 29.052V31.4611C68.8427 31.5949 68.7976 31.702 68.6985 31.7912C68.5993 31.8804 68.4912 31.9161 68.3559 31.9161H61.1627C60.9103 31.9161 60.7481 31.9875 60.6579 32.1302C60.5678 32.273 60.5317 32.4158 60.5317 32.5675V35.5744C60.5317 35.7617 60.5858 35.9224 60.685 36.0562C60.7841 36.19 61.0004 36.2525 61.334 36.2525H70.5013C70.6365 36.2525 70.7537 36.306 70.8619 36.4131C70.97 36.5202 71.0151 36.6451 71.0151 36.7968V39.1791C71.0151 39.3129 70.97 39.4289 70.8709 39.536C70.7717 39.6431 70.6545 39.6966 70.5013 39.6966H57.4579C57.3227 39.6966 57.2055 39.6431 57.0974 39.536L57.1064 39.5271Z" fill="#161718"/>
  <path d="M86.0907 39.6207C85.9826 39.5136 85.9375 39.3976 85.9375 39.2638V29.3597C85.9375 29.208 85.9916 29.0831 86.0907 28.976C86.1989 28.869 86.3161 28.8244 86.4513 28.8244H92.7882C93.5183 28.8244 94.1403 28.5656 94.6631 28.057C95.1859 27.5484 95.4474 26.9328 95.4474 26.21C95.4474 25.4873 95.1859 24.8449 94.6631 24.3363C94.1403 23.8277 93.5093 23.569 92.7882 23.569H86.4513C86.3161 23.569 86.1989 23.5154 86.0907 23.4083C85.9826 23.3013 85.9375 23.1764 85.9375 23.0247V20.4193C85.9375 20.2676 85.9916 20.1427 86.0907 20.0356C86.1989 19.9285 86.3161 19.875 86.4513 19.875H92.7882C93.933 19.875 94.9967 20.1605 95.9702 20.7226C96.9437 21.2848 97.7189 22.061 98.2958 23.0336C98.8727 24.0062 99.1522 25.059 99.1522 26.2011C99.1522 27.3432 98.8637 28.3872 98.2958 29.3508C97.7189 30.3144 96.9527 31.0818 95.9702 31.6439C94.9876 32.206 93.933 32.4916 92.7882 32.4916H89.7505C89.5431 32.4916 89.3989 32.5183 89.3178 32.5719C89.2367 32.6254 89.2006 32.7414 89.2006 32.9109V39.237C89.2006 39.3887 89.1465 39.5136 89.0474 39.6029C88.9392 39.701 88.813 39.7456 88.6598 39.7456H86.4513C86.3161 39.7456 86.1989 39.6921 86.0907 39.5939V39.6207Z" fill="#161718"/>
  <path d="M105.438 36.6637C104.492 35.6109 103.797 34.442 103.365 33.1571L103.311 33.0144C102.968 31.9883 102.797 30.9354 102.797 29.8379C102.797 28.6691 102.995 27.5091 103.401 26.376C103.806 25.2428 104.401 24.2078 105.204 23.2798C106.258 22.1645 107.322 21.3079 108.395 20.7101C109.476 20.1123 110.837 19.7732 112.478 19.6751H112.568C114.173 19.577 115.741 19.8625 117.264 20.5227C118.22 20.9421 119.139 21.5488 120.032 22.3519C120.924 23.1549 121.564 23.9579 121.97 24.7521C122.871 26.3046 123.313 27.991 123.313 29.8022C123.313 30.864 123.151 31.8991 122.826 32.9073C122.502 33.9245 122.024 34.8614 121.393 35.7269C120.915 36.3871 120.392 36.9671 119.833 37.4668C119.266 37.9664 118.581 38.4393 117.751 38.8676C116.282 39.6082 114.695 39.974 112.992 39.974C111.541 39.974 110.152 39.6885 108.836 39.1264C107.52 38.5196 106.384 37.6898 105.438 36.6459V36.6637ZM117.913 34.1565C118.427 33.5676 118.806 33.0144 119.031 32.479C119.41 31.6135 119.608 30.7213 119.608 29.8112C119.608 28.562 119.266 27.3931 118.581 26.3046C117.895 25.216 116.949 24.413 115.741 23.8776C114.858 23.5029 113.956 23.3066 113.019 23.3066C112.181 23.3066 111.369 23.4583 110.594 23.7616C109.819 24.065 109.125 24.5111 108.512 25.0911L108.025 25.5997C107.511 26.2243 107.124 26.8935 106.862 27.6162C106.601 28.33 106.475 29.0706 106.475 29.829C106.475 30.7748 106.673 31.6849 107.079 32.5683C107.484 33.4516 108.061 34.1922 108.827 34.7989C110.071 35.8161 111.486 36.3336 113.073 36.3336C114.128 36.3336 115.11 36.1105 116.03 35.6555C116.778 35.2361 117.409 34.7364 117.923 34.1476L117.913 34.1565Z" fill="#161718"/>
  <path d="M128.192 39.6196C128.084 39.5125 128.039 39.3965 128.039 39.2627V20.4271C128.039 20.2754 128.093 20.1505 128.21 20.0434C128.328 19.9363 128.445 19.8828 128.58 19.8828H131.564C131.699 19.8828 131.816 19.9363 131.924 20.0434C132.032 20.1505 132.077 20.2754 132.077 20.4271V39.2627C132.077 39.3965 132.032 39.5125 131.933 39.6196C131.834 39.7267 131.717 39.7713 131.564 39.7713H128.58C128.427 39.7713 128.3 39.7177 128.192 39.6196Z" fill="#161718"/>
  <path d="M137.986 39.6029C137.904 39.5315 137.859 39.4334 137.859 39.3174V20.339C137.859 20.223 137.904 20.1338 137.986 20.0535C138.076 19.9821 138.175 19.9375 138.283 19.9375H141.204C141.339 19.9375 141.438 20 141.519 20.1338L148.316 31.5101C148.523 31.8849 148.694 32.0812 148.83 32.0812C148.983 32.0812 149.055 31.8759 149.055 31.4566L149.001 20.339C149.001 20.223 149.046 20.1338 149.127 20.0535C149.208 19.9732 149.316 19.9375 149.424 19.9375H152.435C152.552 19.9375 152.651 19.9732 152.733 20.0535C152.814 20.1249 152.859 20.223 152.859 20.339V39.3174C152.859 39.4334 152.814 39.5226 152.733 39.6029C152.642 39.6832 152.543 39.7189 152.435 39.7189H150.398C150.055 39.7189 149.812 39.6921 149.686 39.6386C149.551 39.5851 149.406 39.4334 149.253 39.1835L142.033 27.8072C141.916 27.6377 141.817 27.5485 141.717 27.5485C141.564 27.5485 141.492 27.6823 141.492 27.95L141.546 39.3263C141.546 39.4423 141.501 39.5315 141.42 39.6118C141.33 39.6921 141.24 39.7278 141.15 39.7278H138.283C138.166 39.7278 138.067 39.6921 137.986 39.6118V39.6029Z" fill="#161718"/>
  <path d="M163.211 39.662C163.148 39.5906 163.112 39.5014 163.112 39.4033V24.0296C163.112 23.8601 163.039 23.6995 162.895 23.5657C162.751 23.4229 162.589 23.3515 162.39 23.3515H157.577C157.496 23.3515 157.424 23.3158 157.352 23.2355C157.279 23.1642 157.234 23.0838 157.234 23.0125V20.2643C157.234 20.1662 157.27 20.0948 157.334 20.0412C157.397 19.9877 157.478 19.9609 157.577 19.9609H172.712C172.829 19.9609 172.919 19.9966 173 20.0769C173.072 20.1483 173.117 20.2375 173.117 20.3357V23.0035C173.117 23.1017 173.081 23.182 173 23.2623C172.919 23.3426 172.829 23.3783 172.712 23.3783H167.952C167.763 23.3783 167.601 23.4407 167.465 23.5746C167.33 23.7084 167.267 23.869 167.267 24.0564V39.43C167.267 39.5282 167.231 39.6085 167.168 39.6888C167.105 39.7691 167.015 39.8048 166.897 39.8048H163.49C163.373 39.8048 163.283 39.7691 163.22 39.6888L163.211 39.662Z" fill="#161718"/>
  <path d="M191.838 19.7267C191.73 19.8338 191.604 19.8784 191.451 19.8784H188.467C188.314 19.8784 188.187 19.8249 188.097 19.7267C187.998 19.6197 187.953 19.5037 187.953 19.3698V4.00513H172.377C172.224 4.00513 172.097 3.9516 171.989 3.85345C171.881 3.74638 171.836 3.63039 171.836 3.49655V0.543168C171.836 0.409329 171.89 0.284413 171.989 0.177342C172.097 0.0613481 172.224 0.0078125 172.377 0.0078125H188.449C188.449 0.0078125 188.458 0.0078125 188.467 0.0078125H191.451C191.586 0.0078125 191.712 0.0613481 191.82 0.159497C191.937 0.266568 191.991 0.391484 191.991 0.543168V19.3788C191.991 19.5126 191.937 19.6286 191.838 19.7357V19.7267Z" fill="#161718"/>
</svg>
